<?xml version="1.0" encoding="utf-8"?>
<!-- Generator: Adobe Illustrator 22.0.0, SVG Export Plug-In . SVG Version: 6.00 Build 0)  -->
<svg version="1.1" id="Arrow" xmlns="http://www.w3.org/2000/svg" xmlns:xlink="http://www.w3.org/1999/xlink" x="0px" y="0px"
	 viewBox="0 0 60 60" style="enable-background:new 0 0 60 60;" xml:space="preserve">
<style type="text/css">
	.st0{fill:#FAFAFA;}
</style>
<title>Arrow-Right</title>
<desc>Created with Sketch.</desc>
<g id="Jaartrui---Desktop" transform="translate(-1339.000000, -833.000000)">
	<g id="Arrow-Right">
		<path class="st0" d="M1369,846.9l25.8,25.8l-6.5,6.5l-15.3-15.3c-1.1-1.1-2.5-1.6-4-1.6s-2.9,0.6-4,1.6l-15.3,15.3l-6.5-6.5
			L1369,846.9 M1369,843.7c-0.7,0-1.3,0.3-1.8,0.8l-26.3,26.3c-1,1-1,2.7,0,3.7l7.1,7.1c0.5,0.5,1.2,0.8,1.8,0.8s1.3-0.3,1.8-0.8
			l15.5-15.5c0.5-0.5,1.2-0.8,1.8-0.8s1.3,0.3,1.8,0.8l15.5,15.5c0.5,0.5,1.2,0.8,1.8,0.8c0.7,0,1.3-0.3,1.8-0.8l7.1-7.1
			c1-1,1-2.7,0-3.7l-26.3-26.3C1370.3,844,1369.7,843.7,1369,843.7L1369,843.7z"/>
	</g>
</g>
</svg>
